<?xml version="1.0" standalone="no"?>
<!DOCTYPE svg PUBLIC "-//W3C//DTD SVG 20010904//EN"
 "http://www.w3.org/TR/2001/REC-SVG-20010904/DTD/svg10.dtd">
<svg version="1.0" xmlns="http://www.w3.org/2000/svg"
 width="875.000000pt" height="875.000000pt" viewBox="0 0 875.000000 875.000000"
 preserveAspectRatio="xMidYMid meet">

<g transform="translate(0.000000,875.000000) scale(0.100000,-0.100000)"
fill="#000000" stroke="none">
<path d="M3744 6399 c-12 -4 -31 -20 -43 -35 -21 -27 -21 -29 -21 -626 0 -515
-2 -603 -15 -628 -18 -36 -47 -52 -90 -52 -43 0 -72 16 -90 52 -13 25 -15 110
-15 595 l0 567 -29 29 c-22 21 -39 29 -66 29 -27 0 -44 -8 -66 -29 l-29 -29 0
-372 c0 -409 -1 -414 -61 -446 -40 -20 -88 -12 -120 22 -23 25 -24 33 -29 204
-5 172 -6 179 -29 204 -35 37 -98 36 -135 0 l-26 -27 0 -487 c0 -473 1 -488
20 -513 25 -32 72 -43 111 -27 50 21 59 52 59 210 l0 142 29 28 c16 16 40 32
55 36 37 9 85 -13 107 -50 18 -29 19 -57 19 -412 l0 -380 28 -27 c39 -37 99
-38 133 -1 23 25 24 31 29 226 l5 200 33 29 c44 39 90 39 134 0 l33 -29 5
-401 5 -401 25 -24 c39 -39 95 -38 134 0 l26 27 0 564 c0 621 -1 606 61 639
40 20 88 12 120 -22 l24 -26 5 -780 5 -780 28 -24 c38 -32 86 -32 126 2 l30
25 3 524 3 525 30 29 c46 45 102 45 146 2 l29 -29 0 -512 c0 -436 2 -515 15
-540 25 -48 75 -63 128 -39 54 24 52 -7 54 819 2 551 6 771 14 787 16 31 73
56 109 48 16 -4 41 -20 55 -37 l25 -30 0 -559 c0 -622 -2 -607 66 -635 29 -12
39 -12 68 0 65 27 66 31 66 459 l0 384 24 26 c43 47 106 48 152 2 24 -24 24
-28 24 -197 0 -187 9 -239 43 -263 33 -23 91 -19 124 9 l28 24 5 395 5 395 24
26 c45 48 121 43 158 -13 14 -21 19 -55 23 -177 4 -129 8 -155 24 -172 24 -28
70 -37 107 -22 59 25 59 23 59 545 l0 477 -29 29 c-36 35 -92 39 -131 9 -25
-19 -25 -21 -30 -197 -6 -199 -13 -223 -75 -243 -44 -15 -80 -4 -110 32 l-25
30 0 369 c0 401 -1 413 -55 437 -41 19 -72 14 -106 -16 l-31 -28 -5 -575 c-6
-632 -3 -607 -69 -635 -29 -12 -39 -12 -68 0 -69 29 -66 -4 -66 652 0 398 -4
601 -11 622 l-11 31 -49 -39 c-27 -21 -67 -49 -89 -61 l-40 -23 0 -382 0 -382
-25 -30 c-43 -51 -107 -51 -154 -1 -19 20 -21 35 -21 133 0 61 -3 216 -7 344
l-6 234 -31 -7 c-17 -3 -59 -9 -93 -12 l-63 -6 0 -579 0 -580 -35 -35 c-32
-32 -40 -35 -76 -30 -50 7 -76 29 -89 76 -6 22 -10 254 -10 597 l0 561 -86 23
c-72 19 -88 20 -95 9 -5 -8 -9 -168 -9 -356 l0 -341 -26 -31 c-32 -39 -80 -49
-124 -26 -59 30 -60 42 -60 488 l0 405 -53 44 c-41 36 -56 44 -73 37z"/>
<path d="M1826 3034 c-9 -9 -16 -32 -16 -54 0 -66 4 -70 80 -70 109 0 100 27
100 -291 0 -265 1 -279 19 -289 27 -14 94 -13 109 2 9 9 12 86 12 283 0 197 3
274 12 283 7 7 40 12 78 12 38 0 71 5 78 12 18 18 15 94 -4 112 -13 14 -49 16
-234 16 -185 0 -221 -2 -234 -16z"/>
<path d="M2463 3043 c-10 -3 -13 -68 -13 -276 0 -255 1 -275 21 -312 92 -179
372 -178 461 2 22 46 23 59 26 304 4 292 5 289 -73 289 -76 0 -75 2 -75 -278
0 -278 -1 -284 -69 -302 -49 -13 -94 -4 -126 26 l-25 23 0 255 c0 242 -1 256
-19 266 -20 10 -86 12 -108 3z"/>
<path d="M3106 3034 c-14 -13 -16 -59 -16 -345 0 -209 4 -337 10 -350 8 -15
21 -19 59 -19 28 0 53 6 60 13 6 9 12 85 13 207 2 118 7 195 13 197 6 2 63
-86 127 -195 64 -108 123 -203 130 -210 18 -18 113 -16 132 4 14 13 16 59 16
349 0 377 2 365 -75 365 -71 0 -75 -11 -75 -232 0 -104 -4 -188 -9 -188 -5 0
-60 87 -122 192 -62 106 -122 201 -131 210 -23 23 -110 25 -132 2z"/>
<path d="M3791 3037 c-8 -11 -11 -111 -9 -363 l3 -349 215 0 215 0 3 68 3 67
-139 0 c-94 0 -142 4 -150 12 -13 13 -16 106 -4 125 4 7 36 13 72 15 l65 3 3
67 c3 76 4 75 -93 80 l-50 3 0 65 0 65 125 2 c180 4 171 0 168 81 l-3 67 -206
3 c-166 2 -208 0 -218 -11z"/>
<path d="M4762 3038 c-19 -19 -17 -691 2 -707 8 -7 37 -11 68 -9 l53 3 3 80
c2 43 7 84 13 91 5 6 40 15 77 19 162 17 252 127 239 292 -9 117 -84 209 -190
232 -67 15 -250 14 -265 -1z m269 -149 c22 -11 49 -70 49 -107 0 -78 -41 -122
-115 -122 -28 0 -56 5 -63 12 -13 13 -17 195 -4 214 4 6 14 14 22 17 18 7 88
-2 111 -14z"/>
<path d="M5342 3042 c-9 -7 -12 -86 -10 -363 l3 -354 195 -3 c107 -1 205 0
218 3 21 5 23 10 20 68 l-3 62 -134 3 c-79 1 -140 7 -148 14 -10 8 -13 71 -13
288 0 244 -2 279 -16 284 -22 9 -97 7 -112 -2z"/>
<path d="M6022 3038 c-16 -22 -204 -688 -198 -704 4 -12 20 -14 68 -12 l63 3
23 73 24 73 101 -3 102 -3 20 -60 c11 -33 24 -66 28 -73 11 -16 111 -16 125 1
13 15 -180 696 -201 709 -20 13 -143 9 -155 -4z m108 -310 c12 -40 24 -81 26
-90 5 -16 -2 -18 -50 -18 -35 0 -56 4 -56 11 0 13 40 150 47 162 8 14 12 6 33
-65z"/>
<path d="M6444 3025 c-4 -9 35 -87 92 -188 l99 -172 5 -170 5 -170 65 0 65 0
5 170 5 170 98 173 c56 97 96 179 93 187 -4 11 -22 15 -70 15 -74 0 -70 4
-146 -132 -24 -43 -47 -78 -51 -78 -4 0 -26 35 -49 78 -74 134 -72 132 -146
132 -48 0 -66 -4 -70 -15z"/>
</g>
</svg>
